<svg width="64" height="64" viewBox="0 0 64 64" fill="none" xmlns="http://www.w3.org/2000/svg">
<path opacity="0.5" d="M31.9999 58.6667C46.7275 58.6667 58.6666 46.7276 58.6666 32C58.6666 17.2724 46.7275 5.33334 31.9999 5.33334C17.2723 5.33334 5.33325 17.2724 5.33325 32C5.33325 46.7276 17.2723 58.6667 31.9999 58.6667Z" stroke="black" stroke-width="4"/>
<path d="M42.6065 23.2387L41.4278 22.0323C36.2209 16.7018 27.7788 16.7018 22.5718 22.0323C17.3648 27.3627 17.3648 36.0051 22.5718 41.3355C27.7788 46.6659 36.2209 46.6659 41.4278 41.3355C44.4558 38.2357 45.723 34.0157 45.2294 29.9787M42.6065 23.2387H35.5353M42.6065 23.2387V16" stroke="black" stroke-width="4" stroke-linecap="round" stroke-linejoin="round"/>
</svg>
