<svg width="64" height="64" viewBox="0 0 64 64" fill="none" xmlns="http://www.w3.org/2000/svg">
<path d="M35.3093 47.5851C36.0904 48.3661 37.3568 48.3661 38.1379 47.5851C38.9189 46.804 38.9189 45.5376 38.1379 44.7565L35.3093 47.5851ZM19.2434 25.8622C18.4624 25.0811 17.1961 25.0811 16.415 25.8622C15.634 26.6433 15.634 27.9096 16.415 28.6907L19.2434 25.8622ZM47.9056 32.1603L32.1603 47.9056L34.9888 50.7341L50.7341 34.9888L47.9056 32.1603ZM16.0944 31.8397L31.8397 16.0944L29.0112 13.2659L13.2659 29.0112L16.0944 31.8397ZM16.0944 47.9056C13.8277 45.6389 12.2729 44.0781 11.2601 42.7507C10.2825 41.4693 10 40.6429 10 39.8725H6C6 41.8693 6.83091 43.5397 8.08 45.1771C9.29389 46.768 11.0792 48.5472 13.2659 50.7341L16.0944 47.9056ZM13.2659 29.0112C11.0792 31.1981 9.29389 32.9773 8.08 34.5683C6.83091 36.2053 6 37.876 6 39.8725H10C10 39.1021 10.2825 38.276 11.2601 36.9947C12.2729 35.6672 13.8277 34.1064 16.0944 31.8397L13.2659 29.0112ZM32.1603 47.9056C29.8936 50.1723 28.3328 51.7272 27.0053 52.74C25.724 53.7176 24.8977 54 24.1274 54V58C26.124 58 27.7947 57.1691 29.4317 55.92C31.0227 54.7061 32.8021 52.9208 34.9888 50.7341L32.1603 47.9056ZM13.2659 50.7341C15.4527 52.9208 17.232 54.7061 18.823 55.92C20.4602 57.1691 22.1307 58 24.1274 58V54C23.357 54 22.5307 53.7176 21.2493 52.74C19.9218 51.7272 18.3611 50.1723 16.0944 47.9056L13.2659 50.7341ZM47.9056 16.0944C50.1723 18.3611 51.7272 19.9218 52.74 21.2493C53.7176 22.5307 54 23.357 54 24.1274H58C58 22.1307 57.1691 20.4602 55.92 18.823C54.7061 17.232 52.9208 15.4527 50.7341 13.2659L47.9056 16.0944ZM50.7341 34.9888C52.9208 32.8021 54.7061 31.0227 55.92 29.4317C57.1691 27.7947 58 26.124 58 24.1274H54C54 24.8977 53.7176 25.724 52.74 27.0053C51.7272 28.3328 50.1723 29.8936 47.9056 32.1603L50.7341 34.9888ZM50.7341 13.2659C48.5472 11.0792 46.768 9.29389 45.1771 8.08C43.5397 6.83091 41.8693 6 39.8725 6V10C40.6429 10 41.4693 10.2825 42.7507 11.2601C44.0781 12.2729 45.6389 13.8277 47.9056 16.0944L50.7341 13.2659ZM31.8397 16.0944C34.1064 13.8277 35.6672 12.2729 36.9947 11.2601C38.276 10.2825 39.1021 10 39.8725 10V6C37.876 6 36.2053 6.83091 34.5683 8.08C32.9773 9.29389 31.1981 11.0792 29.0112 13.2659L31.8397 16.0944ZM38.1379 44.7565L19.2434 25.8622L16.415 28.6907L35.3093 47.5851L38.1379 44.7565Z" fill="black"/>
<path d="M24 56H56" stroke="black" stroke-width="4" stroke-linecap="round"/>
</svg>
