<svg width="84" height="50" viewBox="0 0 84 50" fill="none" xmlns="http://www.w3.org/2000/svg">
<path d="M32.3188 9.36859L28.2863 9.13097C28.2814 9.21009 28.279 9.28936 28.279 9.36859H32.3188ZM23.7328 5.17526L21.113 2.16393C21.0871 2.18555 21.0614 2.20749 21.0361 2.22981L23.7328 5.17526ZM5.92526 20.8095L3.22848 17.8636L3.22202 17.8694L5.92526 20.8095ZM4.04001 25.0028L8.08027 25.0355L8.07967 24.9696L4.04001 25.0028ZM5.92526 29.1962L3.22197 32.1357L3.22897 32.1421L5.92526 29.1962ZM23.7328 44.8249L21.0365 47.7708C21.0617 47.7929 21.0872 47.8145 21.113 47.8362L23.7328 44.8249ZM32.3188 40.6316H28.279C28.279 40.7107 28.2814 40.7898 28.2863 40.8689L32.3188 40.6316ZM32.3188 21.0469C30.0877 21.0469 28.279 22.8176 28.279 25.0028C28.279 27.1876 30.0877 28.9588 32.3188 28.9588V21.0469ZM79.4502 28.9588C81.6812 28.9588 83.49 27.1876 83.49 25.0028C83.49 22.8176 81.6812 21.0469 79.4502 21.0469V28.9588ZM36.3586 25.0028V9.36859H28.279V25.0028H36.3586ZM36.3511 9.60621C36.5741 5.98007 34.5639 2.57408 31.2442 0.952715L27.6382 8.03295C28.0595 8.23866 28.3145 8.67086 28.2863 9.13097L36.3511 9.60621ZM31.2442 0.952715C27.9246 -0.668599 23.9369 -0.191879 21.113 2.16393L26.3526 8.1866C26.711 7.88769 27.217 7.82719 27.6382 8.03295L31.2442 0.952715ZM21.0361 2.22981L3.22848 17.8636L8.62203 23.7549L26.4296 8.12077L21.0361 2.22981ZM3.22202 17.8694C1.15012 19.6966 -0.022825 22.3054 0.00033665 25.0355L8.07967 24.9696C8.07574 24.5049 8.27558 24.0603 8.6285 23.7491L3.22202 17.8694ZM0.00033665 24.9696C-0.022825 27.6998 1.15007 30.3086 3.22197 32.1357L8.6285 26.2561C8.27558 25.9449 8.07633 25.5002 8.08027 25.0355L0.00033665 24.9696ZM3.22897 32.1421L21.0365 47.7708L26.4291 41.8785L8.6215 26.2498L3.22897 32.1421ZM21.113 47.8362C23.9369 50.1918 27.9246 50.6687 31.2442 49.0472L27.6382 41.9671C27.217 42.1728 26.711 42.1121 26.3526 41.8131L21.113 47.8362ZM31.2442 49.0472C34.5639 47.4258 36.5741 44.02 36.3511 40.3937L28.2863 40.8689C28.3145 41.3289 28.0595 41.7614 27.6382 41.9671L31.2442 49.0472ZM36.3586 40.6316V25.0028H28.279V40.6316H36.3586ZM32.3188 28.9588H79.4502V21.0469H32.3188V28.9588Z" fill="black"/>
</svg>
