<svg width="64" height="64" viewBox="0 0 64 64" fill="none" xmlns="http://www.w3.org/2000/svg">
<path d="M41.3328 14.6684L48.8752 22.2109M34.6667 56H56M8 56.0011L8.12653 55.1155C8.57429 51.9811 8.79819 50.4139 9.30744 48.9507C9.75933 47.6525 10.3766 46.4179 11.1442 45.2773C12.0091 43.992 13.1285 42.8725 15.3673 40.6339L46.4285 9.5725C48.5115 7.48972 51.8883 7.4897 53.9712 9.5725C56.0539 11.6553 56.0539 15.0322 53.9712 17.115L22.3398 48.7461C20.3088 50.7773 19.2933 51.7928 18.1365 52.6005C17.1098 53.3173 16.0025 53.9112 14.8373 54.3699C13.5246 54.8864 12.1167 55.1704 9.30115 55.7387L8 56.0011Z" stroke="black" stroke-width="5.33333" stroke-linecap="round" stroke-linejoin="round"/>
</svg>
